[Header]
FileType HTR
DataType HTRS
FileVersion 1
NumSegments 28
NumFrames 4
DataFrameRate 24
EulerRotationOrder ZYX
CalibrationUnits mm
RotationUnits Degrees
GlobalAxisofGravity Y
BoneLengthAxis Y
ScaleFactor 1.0
[SegmentNames&Hierarchy]
waist	GLOBAL
chest	waist
head	chest
joint2	chest
right_shoulder1	joint2
right_elbow1	right_shoulder1
right_wrist1	right_elbow1
right_hand1	right_wrist1
right_finger3	right_hand1
right_finger4	right_hand1
right_finger5	right_hand1
joint3	chest
right_shoulder2	joint3
right_elbow2	right_shoulder2
right_wrist2	right_elbow2
right_hand2	right_wrist2
right_finger6	right_hand2
right_finger7	right_hand2
right_finger8	right_hand2
Center_pelvis	waist
left_pelvs	Center_pelvis
left_leg	left_pelvs
left_knee	left_leg
left_foot	left_knee
right_pelvis	Center_pelvis
right_leg	right_pelvis
right_knee	right_leg
right_foot	right_knee
[BasePosition]
waist	0	0	0	179.9999991	0	91.33221985	1
chest	0	0	0	-2.307808268e-010	-1.984983424e-008	1.332219854	1
head	0	0	0	180	-1.481061187e-024	90	1
joint2	0	0	0	4.615476202e-010	-1.707085745e-006	90	1
right_shoulder1	0	0	0	1.916575325e-008	-1.983803253e-008	-88.02506599	1
right_elbow1	0	0	0	-180	-1.948815659e-008	-12.92899665	1
right_wrist1	0	0	0	3.256551172e-010	1.942478841e-008	1.920938916	1
right_hand1	0	0	0	136.2194085	85.17676588	-133.4832578	1
right_finger3	0	0	0	154.4596717	79.84057755	147.6247455	1
right_finger4	0	0	0	154.4596717	79.84057755	147.6247455	1
right_finger5	0	0	0	154.4596717	79.84057755	147.6247455	1
joint3	0	0	0	-180	-1.89575832e-022	90	1
right_shoulder2	0	0	0	6.774897105e-015	-7.012540931e-015	-88.02506599	1
right_elbow2	0	0	0	-180	-6.888863384e-015	-12.92899665	1
right_wrist2	0	0	0	-1.240805042e-012	-7.401196581e-011	1.920938916	1
right_hand2	0	0	0	136.2194085	85.17676588	-133.4832578	1
right_finger6	0	0	0	154.4596717	79.84057755	147.6247455	1
right_finger7	0	0	0	154.4596717	79.84057755	147.6247455	1
right_finger8	0	0	0	154.4596717	79.84057755	147.6247455	1
Center_pelvis	0	0	0	-180	-8.537716493e-007	89.87586122	1
left_pelvs	0	0	0	0	0	-1.456358634	1
left_leg	0	0	0	179.9999991	0	88.69804733	1
left_knee	0	0	0	-180	-7.863991589e-009	-2.076172838	1
left_foot	0	0	0	179.9999985	-3.055580289e-010	-90.77422016	1
right_pelvis	0	0	0	0	0	-2.39554958	1
right_leg	0	0	0	0	0	-87.75885638	1
right_knee	0	0	0	179.9999991	3.702652968e-022	-2.076172838	1
right_foot	0	0	0	180	-7.405305937e-025	-90.77422016	1
[waist]
1	0	-3.152148962	0	1.823863387	-13.80161572	1.340750337	1.0
2	0	-3.152148962	0	1.823863387	-13.80161572	1.340750337	1.0
3	0	-3.152148962	0	1.823863387	-13.80161572	1.340750337	1.0
4	0	-3.152148962	0	1.823863387	-13.80161572	1.340750337	1.0
[chest]
1	22.8176384	-0.5289952755	-13.18645668	21.55998802	29.87947083	-2.729702711	1.0
2	22.47442055	-0.5232592821	-13.00808525	19.60454369	29.64713097	-2.737477779	1.0
3	21.6781311	-0.5099516511	-12.59425259	15.06781101	29.10809326	-2.755516768	1.0
4	20.69682693	-0.4935519695	-12.08426571	9.476968765	28.44381142	-2.777747393	1.0
[head]
1	20.62318993	0.1433748305	1.492195129	-14.5922966	-1.359207273	-1.093141794	1.0
2	20.62318993	0.1433748305	1.492195129	-13.271348	-1.359207273	-1.093141794	1.0
3	20.62318993	0.1433748305	1.492195129	-10.20667934	-1.359207273	-1.093141794	1.0
4	20.62318993	0.1433748305	1.492195129	-6.429933071	-1.359207273	-1.093141794	1.0
[joint2]
1	-1.657010078	17.01290512	0.01287616603	12.96342468	0	0	1.0
2	-1.657010078	17.01290512	0.01287616603	10.54974747	-0.04675597325	-0.07862063497	1.0
3	-1.657010078	17.01290512	0.01287616603	4.949892521	-0.155232206	-0.2610245645	1.0
4	-1.657010078	17.01290512	0.01287616603	-1.951090574	-0.2889129519	-0.4858100414	1.0
[right_shoulder1]
1	14.91590023	0.6211000085	0.9477797747	-3.654456854	5.970774651	-14.66802216	1.0
2	14.91590023	0.6211000085	0.9477797747	-3.489047766	4.253125668	-14.00411415	1.0
3	14.91590023	0.6211000085	0.9477797747	-3.105289698	0.2680906057	-12.46381092	1.0
4	14.91590023	0.6211000085	0.9477797747	-2.632365942	-4.642867088	-10.56562042	1.0
[right_elbow1]
1	-13.64346027	1.083028078	-0.5017899871	4.903916359	22.01850128	0.2303846031	1.0
2	-13.64346027	1.083028078	-0.5017899871	4.903916359	22.01850128	0.2303846031	1.0
3	-13.64346027	1.083028078	-0.5017899871	4.903916359	22.01850128	0.2303846031	1.0
4	-13.64346027	1.083028078	-0.5017899871	4.903916359	22.01850128	0.2303846031	1.0
[right_wrist1]
1	-11.07325459	0.004849368241	0.6145500541	3.809552193	11.41498566	7.834975243	1.0
2	-11.07325459	0.004849368241	0.6145500541	3.194548368	11.82456493	5.923548698	1.0
3	-11.07325459	0.004849368241	0.6145500541	1.767707229	12.77481079	1.488941073	1.0
4	-11.07325459	0.004849368241	0.6145500541	0.009339618497	13.94584465	-3.976047516	1.0
[right_hand1]
1	-7.870647907	-0.6475095749	0.1588415354	5.372437954	29.75944901	17.09375381	1.0
2	-7.870647907	-0.6475095749	0.1588415354	6.182024956	29.35365105	17.38520813	1.0
3	-7.870647907	-0.6475095749	0.1588415354	8.060308456	28.41218376	18.06139946	1.0
4	-7.870647907	-0.6475095749	0.1588415354	10.3750124	27.25196075	18.89470482	1.0
[right_finger3]
1	10.07661057	3.347557783	-1.489186764	-84.28975677	13.1826582	87.76701355	1.0
2	10.07661057	3.347557783	-1.489186764	-84.28975677	13.1826582	87.76701355	1.0
3	10.07661057	3.347557783	-1.489186764	-84.28975677	13.1826582	87.76701355	1.0
4	10.07661057	3.347557783	-1.489186764	-84.28975677	13.1826582	87.76701355	1.0
[right_finger4]
1	-1.201135993	3.376283169	11.27149582	-190.2575378	16.2514534	124.4265747	1.0
2	-1.201135993	3.376283169	11.27149582	-190.2575378	16.2514534	124.4265747	1.0
3	-1.201135993	3.376283169	11.27149582	-190.2575378	16.2514534	124.4265747	1.0
4	-1.201135993	3.376283169	11.27149582	-190.2575378	16.2514534	124.4265747	1.0
[right_finger5]
1	-6.853637218	4.493112087	-5.936321735	34.39846039	4.028532028	79.4876709	1.0
2	-6.853637218	4.493112087	-5.936321735	34.39846039	4.028532028	79.4876709	1.0
3	-6.853637218	4.493112087	-5.936321735	34.39846039	4.028532028	79.4876709	1.0
4	-6.853637218	4.493112087	-5.936321735	34.39846039	4.028532028	79.4876709	1.0
[joint3]
1	-1.657010078	-17.01289368	0.01287565939	-40.36328506	-1.033435583	-1.737080932	1.0
2	-1.657010078	-17.01289368	0.01287565939	-37.94961548	-0.9866598845	-1.658456564	1.0
3	-1.657010078	-17.01289368	0.01287565939	-32.34977341	-0.8781379461	-1.476044297	1.0
4	-1.657010078	-17.01289368	0.01287565939	-25.44880867	-0.7444007993	-1.251248121	1.0
[right_shoulder2]
1	-14.91590023	-0.6211000085	-0.9477797747	0	-31.97780228	0	1.0
2	-14.91590023	-0.6211000085	-0.9477797747	-0.1653885096	-30.26015091	-0.6639076471	1.0
3	-14.91590023	-0.6211000085	-0.9477797747	-0.5490983129	-26.27511406	-2.20420742	1.0
4	-14.91590023	-0.6211000085	-0.9477797747	-1.02196312	-21.36415291	-4.102396011	1.0
[right_elbow2]
1	13.64346027	-1.083028078	0.5017899871	7.431889057	27.58552551	1.157387257	1.0
2	13.58620071	-0.9802359939	0.5982439518	7.431889057	27.58552551	1.157387257	1.0
3	13.4533577	-0.7417532802	0.8220219016	7.431889057	27.58552551	1.157387257	1.0
4	13.28964806	-0.4478589296	1.097794771	7.431889057	27.58552551	1.157387257	1.0
[right_wrist2]
1	11.37348366	-5.659013271	-0.5602906942	-9.777693748	20.46432304	-34.39454651	1.0
2	11.37348366	-5.659013271	-0.5602906942	-9.162683487	20.05473137	-32.48313904	1.0
3	11.37348366	-5.659013271	-0.5602906942	-7.735827446	19.10445213	-28.04857826	1.0
4	11.37348366	-5.659013271	-0.5602906942	-5.977441311	17.93337822	-22.58364487	1.0
[right_hand2]
1	8.313048363	0.02588133886	-0.2132965624	23.25933266	20.79361916	23.53329659	1.0
2	8.313048363	0.02588133886	-0.2132965624	22.44970894	21.19941521	23.24183846	1.0
3	8.313048363	0.02588133886	-0.2132965624	20.57134628	22.14087486	22.5656414	1.0
4	8.313048363	0.02588133886	-0.2132965624	18.25654411	23.30108643	21.73233414	1.0
[right_finger6]
1	-10.07661057	-3.347557783	1.489186764	-83.6856308	28.25859642	89.45962524	1.0
2	-10.07661057	-3.347557783	1.489186764	-83.6856308	28.25859642	89.45962524	1.0
3	-10.07661057	-3.347557783	1.489186764	-83.6856308	28.25859642	89.45962524	1.0
4	-10.07661057	-3.347557783	1.489186764	-83.6856308	28.25859642	89.45962524	1.0
[right_finger7]
1	1.201135993	-3.376283169	-11.27149582	-196.815567	9.285179138	95.4122467	1.0
2	1.201135993	-3.376283169	-11.27149582	-196.815567	9.285179138	95.4122467	1.0
3	1.201135993	-3.376283169	-11.27149582	-196.815567	9.285179138	95.4122467	1.0
4	1.201135993	-3.376283169	-11.27149582	-196.815567	9.285179138	95.4122467	1.0
[right_finger8]
1	6.853637218	-4.493112087	5.936321735	33.30503464	-9.988982201	100.1356735	1.0
2	6.853637218	-4.493112087	5.936321735	33.30503464	-9.988982201	100.1356735	1.0
3	6.853637218	-4.493112087	5.936321735	33.30503464	-9.988982201	100.1356735	1.0
4	6.853637218	-4.493112087	5.936321735	33.30503464	-9.988982201	100.1356735	1.0
[Center_pelvis]
1	-5.616972446	-0.3766000271	2.04698658	0	0	0	1.0
2	-5.616972446	-0.3766000271	2.04698658	0	0	0	1.0
3	-5.616972446	-0.3766000271	2.04698658	0	0	0	1.0
4	-5.616972446	-0.3766000271	2.04698658	0	0	0	1.0
[left_pelvs]
1	11.08986378	-0.01586683653	-0.09214995801	-9.994826317	0	0	1.0
2	11.08986378	-0.01586683653	-0.09214995801	-9.162052155	-0.04083815217	-1.501359463	1.0
3	11.08986378	-0.01586683653	-0.09214995801	-7.229975224	-0.1355847716	-4.98459053	1.0
4	11.08986378	-0.01586683653	-0.09214995801	-4.84897995	-0.2523457706	-9.277150154	1.0
[left_leg]
1	8.450808053e-008	-5.682914734	0.3641465604	0	-51.82529449	0	1.0
2	8.450808053e-008	-5.682914734	0.3641465604	0	-45.32296371	-1.674016476	1.0
3	8.450808053e-008	-5.682914734	0.3641465604	0	-30.23722076	-5.55782032	1.0
4	8.450808053e-008	-5.682914734	0.3641465604	0	-11.64630604	-10.34402752	1.0
[left_knee]
1	-10.69747543	0.03457061574	-6.811455844e-009	37.05981445	-40.4884758	-5.76624918	1.0
2	-10.69747543	0.03457061574	-6.811455844e-009	33.41772079	-36.50942612	-5.199564457	1.0
3	-10.69747543	0.03457061574	-6.811455844e-009	24.96787643	-27.27782631	-3.884827375	1.0
4	-10.69747543	0.03457061574	-6.811455844e-009	14.55470657	-15.90126324	-2.264611006	1.0
[left_foot]
1	-14.54718971	-0.01193539705	1.933258442e-009	-10.61420059	31.93104172	-11.63099003	1.0
2	-14.54718971	-0.01193539705	1.933258442e-009	-9.5710783	28.79298401	-10.48794174	1.0
3	-14.54718971	-0.01193539705	1.933258442e-009	-7.150981426	21.51252747	-7.836010456	1.0
4	-14.54718971	-0.01193539705	1.933258442e-009	-4.168574333	12.54045582	-4.567903519	1.0
[right_pelvis]
1	-10.5868988	0.4465443194	0.2088862956	8.282813072	0	0	1.0
2	-10.5868988	0.4465443194	0.2088862956	8.624979973	-0.0036543936	-1.568097115	1.0
3	-10.5868988	0.4465443194	0.2088862956	9.418824196	-0.01213277411	-5.20616293	1.0
4	-10.5868988	0.4465443194	0.2088862956	10.39711952	-0.02258110791	-9.689533234	1.0
[right_leg]
1	0.09169664979	-5.593489647	0.06310817599	0	49.47127533	0	1.0
2	0.09169664979	-5.593489647	0.06310817599	0	46.1955452	0	1.0
3	0.09169664979	-5.593489647	0.06310817599	0	38.59568024	0	1.0
4	0.09169664979	-5.593489647	0.06310817599	0	29.22998428	0	1.0
[right_knee]
1	10.69750977	-0.03459574655	-4.718447855e-015	0	-4.271131039	0	1.0
2	10.69750977	-0.03459574655	-4.718447855e-015	2.286533594	-8.377760887	-1.335837603	1.0
3	10.69750977	-0.03459574655	-4.718447855e-015	7.59140873	-17.90535164	-4.435050011	1.0
4	10.69750977	-0.03459574655	-4.718447855e-015	14.12887192	-29.64667892	-8.254364014	1.0
[right_foot]
1	14.54718685	0.01191107463	1.774880243e-010	11.55060196	0	0	1.0
2	14.54718685	0.01191107463	1.774880243e-010	7.893558979	1.445271015	-0.5264459252	1.0
3	14.54718685	0.01191107463	1.774880243e-010	-0.5909680724	4.798373699	-1.747827649	1.0
4	14.54718685	0.01191107463	1.774880243e-010	-11.04687691	8.930569649	-3.252997398	1.0
[EndOfFile]
